<svg id="Layer_1" data-name="Layer 1" xmlns="http://www.w3.org/2000/svg" viewBox="0 0 553.5 181"><defs><style>.cls-1{fill:#fff;}</style></defs><title>adventure</title><path d="M32,336.82c-.28-9.21-.9-18.42-.72-27.62.13-6.16,1.54-12.28,2.05-18.45a13.26,13.26,0,0,0-1-6.91c-2.55-4.82.45-11.27,5.94-11.89,1.26-.15,2.51-.36,3.77-.5,2.6-.3,6.21.39,7.59-1.06C52,268,53,264.29,54.2,261c.92-2.58.95-5.49,1.91-8.06.52-1.4,2.51-2.2,3.23-3.58,2-4,3.8-8.15,5.76-12.43a66.65,66.65,0,0,1-8-2.76c-3.63-1.78-7.43-3.54-10.49-6.12-7-5.94-6.22-13.36,2-17.64a37.6,37.6,0,0,1,12.36-3.88c11.41-1.45,22.52,0,32.72,5.69,5.13,2.84,10.3,6.37,9.44,13.2-.84,6.56-6.43,9.28-12,10.3a126.62,126.62,0,0,1-20.89,1.57c-2.59,0-3.8.63-4.7,2.92-1.27,3.27-2.83,6.43-4.26,9.64-.29.64-1,1.48-.78,1.9,2.78,5.95-2.59,11.29-1.2,17.1a15.33,15.33,0,0,1,.14,2.25l5.91.29c-.47-2.6-.77-4.85-1.29-7.05-1.21-5.1,1-7.76,6.25-7.46,1,.06,2.69-.07,2.91-.6,3-7.11,9.49-8.85,16-10a55.38,55.38,0,0,1,13.86-.23c4.45.37,8,2.57,8.73,7.7,8.06-7.93,19.58-9.61,29.8-5.92,3.2,1.15,7.57-.66,11.31-1.51.67-.15,2.46-2.37-.48-3.27-.6-.19-.7-2-1.12-3.39l4.21.4a14.38,14.38,0,0,1,.24,1.92c0,4.5,2.08,6.63,6.44,6.41,2.36-.12,3.89-1,2.32-3.71-2.71-4.61-5.27-9.32-8.27-13.74-1.24-1.81-2.3-4.51-5.62-3.94-.78.13-1.79-1.11-2.07-1.3l.83-6.18c-8.59,0-16.46,0-24.32,0-.66,0-1.3-.47-2.18-1.85,4.63-1,9.26-2,13.9-3,2.06-.42,4.28-.37,6.21-1.09s4.66-1.13,3.68-4.52c-.14-.49.92-1.82,1.52-1.89s2.1.77,2.15,1.3c.38,4.82,4,4.22,7.12,4.47a169.49,169.49,0,0,1,18.07,2c-7.59,4.17-16.19,3.4-24.44,5.51,3.62-.33,3.74,2.13,4.95,4.46,3.72,7.17,8.16,14,12.45,20.84a37.07,37.07,0,0,0,3.45,4.32c.7,2.87.86,4.9,1.68,6.62,1.32,2.82,3.07,5.43,4.64,8.13l-1.37.81c-2.22-3.67-4.44-7.33-6.88-11.34-2.19,8.27-.91,13.5,4.12,15.45-6.31,2-4.68,6.88-4.65,11.11s.25,8.73.29,13.1a21.94,21.94,0,0,1-.54,3.55l-1.63-.09v-24.6c-3.55-1.05-5.19-.59-5.09,2.75.13,4.07,0,8.16,0,11.89l3.76,2.42c-1.49,3.36-2.61,5.78-3.63,8.24a5.81,5.81,0,0,0-.06,1.68c-.59,8.08-.31,14.55,8.21,20.28,9.83,6.62,17.34,16.7,25.79,25.34a23.07,23.07,0,0,1,2.51,3.79c-5.11,2.17-5.72,1.84-6.34-2.72a5.87,5.87,0,0,0-1-3.11c-4.36-4.75-8.86-9.37-13-13.69-9.91,4.39-9.28,11.12-4.46,18.43-4.29,2.56-5.67,1.8-5.81-2.56-.06-1.88-.36-3.74-.61-6.2l-6,3.86,3.23,3.42c.22,2.11.11,4,.66,5.64s1.93,3.1,2.6,4.77c.19.48-.63,1.86-1.24,2.06a2.56,2.56,0,0,1-2.26-.92c-.57-.91-.51-2.18-.87-3.24-1.33-3.88-2.68-7.76-4.16-11.58-.25-.65-1.19-1-1.4-1.19-4.33,5.18-6.45,10.94-5,18.09l-5.69-1.12,2.47-7.2-10,7.4c-1.51.09-3.25.14-5,.3-5.23.49-10.47,1.51-15.68,1.31-2.26-.08-4.48-2.56-6.63-4.07a31,31,0,0,1-3-2.77c4.21,1.42,8.33,3.61,12.65,4.16,18.83,2.39,36.4-13.37,37.23-33,.71-16.57-8.61-29.92-23-32.93s-29,4.77-36,19c-6.9,13.94-4.07,30.86,6.72,40.29.92.8,1.72,1.74,2.57,2.61-2.36-.25-4.8-.19-7-.84a34.09,34.09,0,0,1-6.5-3.07c-1.55-.83-3-1.84-4.36-2.69-2.89,6,1.68,9.65,3.67,13.9a41,41,0,0,1-5.9,3.92c-.56.25-2.75-1.23-2.76-1.94a17.88,17.88,0,0,1,1.27-5.26c.92-3,.42-4.78-3.23-4,.56-7.05-6.38-10-8.59-15.74,0,.8-.2,1.79.17,2.38,2.38,3.75,1.23,7.61.45,11.41-.16.76-1.35,1.31-2.07,2-.5-1-1.42-1.91-1.42-2.86,0-3,.33-6.05.53-9.07L72.94,342c-1.24,1.07-2.52,2.11-3.72,3.22a7.22,7.22,0,0,1-9.73.47C55,342.28,50.6,338.83,46,335.23c-5.3,5.11-10.61,10.06-15.67,15.26-1,1.07-1.37,3-1.66,4.6-.8,4.38-1.62,4.78-6.12,2.45,1.61-5.38,3.24-10.8,4.87-16.22v7l1.8.75c3.59-3.93,7.06-8,10.81-11.76s7.89-7.4,12.27-11.46L33.1,322.72c0,1.63.12,3.43,0,5.21C32.81,330.9,32.38,333.86,32,336.82Zm114.46-63.94c-.88-.83-1.68-2.24-2.66-2.39a35.11,35.11,0,0,0-25.34,5.3c-.4.26-.54.91-1.49,2.6,3.87.34,7.15,1.28,10.17.74,5.9-1.05,11.65-2.94,17.46-4.48-1.65,5.91,3.07,10.75,3.43,16.46l-5.49,1,9.68,6.82c0-3.35.08-6,0-8.66-.14-3.9-.71-7.81-.56-11.69.2-5.23,1.09-10.43,1.31-15.67.06-1.52-1-3.19-1.92-4.58a3.76,3.76,0,0,0-2.84.9,13.52,13.52,0,0,0-1.29,4.93C146.63,267,146.61,270,146.48,272.88ZM80.8,283.64c1.52.24,3,.56,4.57.71a44.7,44.7,0,0,0,24.57-4.06c1.41-.69,2.25-2.55,3.35-3.87-1.3-.92-2.49-2.38-3.92-2.67a41.85,41.85,0,0,0-27.81,3.74c-3.64,1.84-3.61,3.26-.62,6.26-.47.26-1.34.52-1.34.78-.08,6.71-.06,13.42-.06,20.13l.59.12,1-4.66L97.23,287l6.82-.84-.22-1.69c-1.81.26-3.62.6-5.44.76C92.44,285.73,86.4,287,80.8,283.64ZM62,325.74c-8.09-2.07-10.14,4.77-15.05,8.06l16,12C62.55,338.18,62.26,332,62,325.74Zm98-20.82c0-7.35,0-14.7,0-22a41,41,0,0,0-.52-7.93c-.25-1.23-1.75-2.2-2.69-3.28l-1.42.86c.42,1.48.37,3.66,1.34,4.3,3,2,2,3.34.75,6.1C154.11,290.37,153.07,298.1,160,304.92Zm3.13,12.57c2.41,5.82,4.54,11,6.82,16.52l7-6.43C172.16,324.21,169.79,318.64,163.1,317.49ZM67.32,271.57c4.09.18,8,2.34,9.53-2.61,1.1-3.47-2.1-7.54-6.51-8.59Zm99.47-18.38-4.74.48c0,2.53.06,4.65,0,6.76-.06,1.54-.76,3.22-.32,4.56.38,1.18,1.87,2.1,3.06,2.82.27.17,1.91-.94,1.93-1.5C166.87,262.09,166.79,257.85,166.79,253.19ZM54.91,273.54H36.34C42.57,274.63,48.81,276.58,54.91,273.54Zm25.41,63.31.4-.49c-1.47-4.15-3-8.3-4.54-12.8l-3.93,1ZM56.77,261.71l-.74-.12-4.16,9.67,4.9-.35Zm99.28,7.07c3.83-3.11,3.53-7.35,0-10ZM66.21,337c2.12-3.77,4.45-7.58,0-11.62Zm13.42.4-1.28.85q4.09,5.81,8.17,11.62l.93-.62Zm87.6-2,1.4-.26q-1.83-5.3-3.67-10.6l-1.72.63ZM111.33,262c.47,2.42.87,4.5,1.46,7.55C116.05,264.56,115.84,263.77,111.33,262Zm-41.55,72.9-2.6,8.78C70.92,341.28,73.16,339.34,69.78,334.91Z" transform="translate(-22.5 -206)"/><path class="cls-1" d="M32,336.82c.36-3,.79-5.92,1-8.89.15-1.78,0-3.58,0-5.21l19.15,3.12c-4.38,4.06-8.46,7.62-12.27,11.46s-7.22,7.83-10.81,11.76l-1.8-.75v-7Z" transform="translate(-22.5 -206)"/><path class="cls-1" d="M110.11,354.26c-.85-.87-1.65-1.81-2.57-2.61-10.79-9.43-13.62-26.35-6.72-40.29,7-14.22,21.76-22,36-19s23.7,16.36,23,32.93c-.83,19.6-18.4,35.36-37.23,33-4.32-.55-8.44-2.74-12.65-4.16Z" transform="translate(-22.5 -206)"/><path class="cls-1" d="M80.92,283.74c-3-3-3-4.41.64-6.25a41.85,41.85,0,0,1,27.81-3.74c1.43.29,2.62,1.75,3.92,2.67-1.1,1.32-1.94,3.18-3.35,3.87a44.7,44.7,0,0,1-24.57,4.06c-1.54-.15-3.05-.47-4.57-.71Z" transform="translate(-22.5 -206)"/><path class="cls-1" d="M62,325.74c.3,6.28.59,12.44.95,20.07l-16-12C51.82,330.51,53.87,323.67,62,325.74Z" transform="translate(-22.5 -206)"/><path class="cls-1" d="M146.48,272.88l-1.86,1.77c-5.81,1.54-11.56,3.43-17.46,4.48-3,.54-6.3-.4-10.17-.74,1-1.69,1.09-2.34,1.49-2.6a35.11,35.11,0,0,1,25.34-5.3C144.8,270.64,145.6,272.05,146.48,272.88Z" transform="translate(-22.5 -206)"/><path class="cls-1" d="M163.1,317.49c6.69,1.15,9.06,6.72,13.78,10.09l-7,6.43C167.64,328.47,165.51,323.31,163.1,317.49Z" transform="translate(-22.5 -206)"/><path class="cls-1" d="M54.91,273.54c-6.1,3-12.34,1.09-18.57,0Z" transform="translate(-22.5 -206)"/><path class="cls-1" d="M80.32,336.85l-8.07-12.31,3.93-1c1.59,4.5,3.07,8.65,4.54,12.8Z" transform="translate(-22.5 -206)"/><path class="cls-1" d="M66.21,337V325.37C70.66,329.41,68.33,333.22,66.21,337Z" transform="translate(-22.5 -206)"/><path class="cls-1" d="M79.63,337.39l7.82,11.85-.93.62q-4.08-5.81-8.17-11.62Z" transform="translate(-22.5 -206)"/><path class="cls-1" d="M167.23,335.38l-4-10.23,1.72-.63q1.84,5.3,3.67,10.6Z" transform="translate(-22.5 -206)"/><path class="cls-1" d="M111.33,262c4.51,1.76,4.72,2.55,1.46,7.55C112.2,266.51,111.8,264.43,111.33,262Z" transform="translate(-22.5 -206)"/><path class="cls-1" d="M69.78,334.91c3.38,4.43,1.14,6.37-2.6,8.78Z" transform="translate(-22.5 -206)"/><path d="M520.11,312.19" transform="translate(-22.5 -206)"/><path d="M286.8,386.16q-89,.06-178,0a3.94,3.94,0,0,1-3-1.18c9.9-2.76,19.81-5.44,29.7-8.29,39-11.24,78.09-22.12,115.68-40a135.53,135.53,0,0,0,26.38-16.56c10.63-8.53,10.91-17.18,2.33-28.76-1.61-2.17-3.34-4.21-4.85-6.48-3.43-5.16-2.85-9,2.27-11.07a60.38,60.38,0,0,1,15.09-4.19c13.88-1.83,27.81-3.11,41.72-4.61l.21,1.73-9.8,4.22-.27,1.77c2.72,1.45,5.34,3.42,8.17,4.26,12.5,3.71,25,7.36,37.58,10.54,36.23,9.15,72.56,17.76,107.73,32.65,13.48,5.7,26.65,12.47,37.93,24,7.89,8,13.68,17.74,12.43,31.72-.34,3.77-1.37,7.44-2.08,11.15H445a29.12,29.12,0,0,0-4.42-.66q-46.08-.07-92.18,0a28.14,28.14,0,0,0-4.4.7H312Z" transform="translate(-22.5 -206)"/><path class="cls-1" d="M475,346a35,35,0,0,1,4.4-.54q46.1,0,92.18,0A38.87,38.87,0,0,1,576,346Z" transform="translate(-22.5 -206)"/><path class="cls-1" d="M388.11,237c0,4,.16,7.95-.1,11.91-.07,1.11-1.36,2.14-2.09,3.21-.66-1-1.86-1.92-1.9-2.92q-.52-12.62-.61-25.24c0-.72,1.55-2.17,2-2,1,.29,2.43,1.36,2.48,2.18.25,4.28.12,8.59.12,12.89Z" transform="translate(-22.5 -206)"/><path d="M399,290.4a2.63,2.63,0,0,1-.35-.15.52.52,0,0,0-.13-.06c-.43-.1-.86-.18-1.28-.3a12.15,12.15,0,0,1-1.16-.39c-.47-.19-.93-.4-1.39-.61l-.26-.14c-.09,0-.18-.1-.26-.08a.92.92,0,0,1-.63-.2,4.65,4.65,0,0,1-.64-.41,1,1,0,0,1-.25-.28,3.61,3.61,0,0,0-.85-.85h0c-.42-.07-.6-.44-.84-.72a5.81,5.81,0,0,1-.54-.76c-.21-.33-.41-.68-.6-1a1.38,1.38,0,0,1-.19-.7,1.45,1.45,0,0,0-.1-.41c-.1-.38-.2-.75-.31-1.12a.4.4,0,0,0-.07-.18,1.57,1.57,0,0,1-.25-1c0-.26,0-.52,0-.78a3.4,3.4,0,0,1,0-.9c.05-.33.06-.66.08-1a10.42,10.42,0,0,1,.43-2.41l.13-.81c.2-.53.39-1.07.6-1.6a7.45,7.45,0,0,1,.37-.75l.27-.54a.38.38,0,0,0,.06-.13,4,4,0,0,1,.64-1.28c.15-.25.31-.5.48-.74.28-.4.58-.78.88-1.17a6.45,6.45,0,0,1,.92-.89,7.77,7.77,0,0,0,.71-.81c.41-.53.83-1.05,1.19-1.6a3.43,3.43,0,0,0,.61-2.39,15.47,15.47,0,0,0-.39-2c-.19-.73-.35-1.48-.49-2.22a4.24,4.24,0,0,1-.07-.88c0-.39,0-.79,0-1.18a6,6,0,0,1,.21-1.32,2.64,2.64,0,0,0,0-.29.55.55,0,0,1,0-.18l.54-1.41c0-.05.07-.13.12-.15s.23-.19.31-.31a12.89,12.89,0,0,1,1-1.31,7.24,7.24,0,0,1,1.09-.9s.09-.05.11-.09c.08-.21.27-.26.45-.34a3,3,0,0,1,.79-.22c.34-.05.67-.18,1-.24s.8-.11,1.2-.16l1.43-.14.48,0c.27,0,.28,0,.3-.32s0-.66.06-1c.06-.79.13-1.58.19-2.37.06-.63.11-1.26.17-1.88s.12-1.39.17-2.09.11-1.24.17-1.86l.15-1.78c.05-.5.1-1,.14-1.49s.08-1.09.16-1.63a6.41,6.41,0,0,0,.07-1.07,8.33,8.33,0,0,1,.08-.86c.06-.58.11-1.17.17-1.75,0-.29.06-.57.08-.86s0-.38,0-.57c.06-.72.12-1.43.19-2.14,0-.49.12-1,.17-1.48,0-.25,0-.5,0-.75a1.7,1.7,0,0,1,0-.22.45.45,0,0,0-.19-.5l-.13-.08a.7.7,0,0,1-.41-.57.5.5,0,0,0-.32-.42c-.3-.15-.35-.26-.25-.58s.11-.39.17-.58a.53.53,0,0,0-.1-.5.49.49,0,0,1-.09-.45,1,1,0,0,0,0-.25,1.85,1.85,0,0,1,0-.23c0-.19.09-.37-.07-.54s0-.15,0-.21l.25-.63a.48.48,0,0,0,0-.39.67.67,0,0,1-.07-.63s0,0,0,0c-.14-.34,0-.69-.05-1s0-.32.23-.42a.37.37,0,0,0,.21-.26.35.35,0,0,1,.26-.3c0-.25,0-.48,0-.71,0-.39.16-.52.54-.61s.92-.27,1.38-.4l.32-.08,1.06.07a6.77,6.77,0,0,1,.85.43,3.11,3.11,0,0,0,1,.43.58.58,0,0,1,.43.56c0,.16,0,.32,0,.48s0,.48,0,.73a.27.27,0,0,0,.11.17,1.06,1.06,0,0,0,.19.06.31.31,0,0,1,.26.45,3.22,3.22,0,0,0-.14.74,1.61,1.61,0,0,1-.09.29c0,.12-.09.23-.12.36a.27.27,0,0,0,.08.33.39.39,0,0,1,.11.38,6.32,6.32,0,0,1-.31,1.19l-.14.41a2.15,2.15,0,0,1,.25.36c.06.13,0,.27-.06.41a1.37,1.37,0,0,0-.07.34,1,1,0,0,1-.43.84c-.05,0-.11.06-.13.11a2.6,2.6,0,0,1-.44.54,1,1,0,0,0-.24.47l0,.05a3,3,0,0,0-.24,1.32c-.11,1.76-.21,3.53-.32,5.29,0,.43-.13.85-.12,1.28,0,.89-.1,1.78-.11,2.67,0,2.05-.26,4.1-.32,6.15-.05,1.57-.16,3.14-.24,4.71,0,.63,0,1.26-.07,1.89a3,3,0,0,1-.06.4,2.64,2.64,0,0,0,0,1,.19.19,0,0,0,.14.12l.86.17.56.14a12.43,12.43,0,0,1,1.71.62,2.53,2.53,0,0,1,.82.48s.14.06.2.1l.43.31.36.21a1.53,1.53,0,0,1,.25.16,6.87,6.87,0,0,1,1.43,2.18,8.15,8.15,0,0,1,.66,2.73,6.83,6.83,0,0,1-.08,1.86,10.15,10.15,0,0,1-.33,1.45c-.16.46-.34.91-.52,1.36s-.36.87-.51,1.32-.33,1-.47,1.56a3.09,3.09,0,0,0,.06,1.48,6.54,6.54,0,0,0,.82,1.78c.37.66.76,1.32,1.15,2a27.84,27.84,0,0,1,1.39,2.72c.27.62.49,1.27.7,1.91.1.3.14.62.21.93s.15.69.22,1c.05.18.09.22.27.24l.23,0,3.35.2.27,0v.05l-.27,0-3.43-.2-.17,0c-.3,0-.35.05-.32.33s.08.7.1,1.06,0,.77,0,1.16,0,.72-.06,1.08c0,.18,0,.37,0,.55a4.47,4.47,0,0,1-.13,1c-.05.17-.08.36-.12.54s-.07.31-.12.45c-.13.36-.25.71-.4,1.06s-.34.73-.52,1.09a11.89,11.89,0,0,1-.88,1.34,4.18,4.18,0,0,1-.43.5,12.31,12.31,0,0,1-1.27,1.11,10.58,10.58,0,0,1-2.54,1.32,18.16,18.16,0,0,1-2.32.67c-.31.07-.61.18-.92.23-.47.09-.93.14-1.4.21a.3.3,0,0,1-.16,0,.58.58,0,0,0-.58-.06,5,5,0,0,1-1.22.16l-1.18.09a1.34,1.34,0,0,1-.4,0,6.69,6.69,0,0,0-1.48-.08,1.85,1.85,0,0,1-.41,0Zm10.23-67.92h0a1.71,1.71,0,0,0,0,.32.31.31,0,0,0,.12.23.43.43,0,0,0,.68-.33c0-.26,0-.52,0-.78a.36.36,0,0,0-.34-.34.3.3,0,0,0-.38.25C409.33,222.05,409.3,222.27,409.26,222.48Zm-2.49-.44a1.15,1.15,0,0,0,0,.18.4.4,0,0,0,.45.31c.2,0,.29-.14.29-.37a1.57,1.57,0,0,0,0-.3.39.39,0,0,0-.33-.27.38.38,0,0,0-.34.29A.57.57,0,0,0,406.77,222Zm.43,1.57a.35.35,0,0,0-.33.15.27.27,0,0,0,.05.34c.07.09.13.19.21.28a.25.25,0,0,0,.39,0,.51.51,0,0,0,0-.52A.34.34,0,0,0,407.2,223.61Zm-.4-3.61a.29.29,0,0,0,.24.3.29.29,0,0,0,.29-.26.28.28,0,0,0-.27-.28A.23.23,0,0,0,406.8,220Zm2.76,4a.28.28,0,0,0-.28.26.28.28,0,0,0,.24.28.27.27,0,0,0,0-.54Zm.14-3.55a.27.27,0,0,0,.3-.22.3.3,0,0,0-.27-.28.24.24,0,0,0-.26.24A.22.22,0,0,0,409.7,220.46Zm-2.09-1.72a.5.5,0,0,0-.63,0Zm2.6.24a.69.69,0,0,0-.53,0A.8.8,0,0,0,410.21,219Z" transform="translate(-22.5 -206)"/><path d="M436.69,237.78a.35.35,0,0,0-.08.13c-.07.31-.13.62-.17.93a3,3,0,0,1-.19,1,.67.67,0,0,0-.05.19c-.08.58-.16,1.15-.25,1.72l-.33,2.09c-.1.67-.18,1.35-.28,2s-.25,1.37-.36,2.06-.19,1.36-.29,2a.31.31,0,0,1,0,.1c-.17.49-.15,1-.27,1.51,0,.15,0,.3-.05.45s-.09.44-.14.66-.05.15-.06.22a14.71,14.71,0,0,1-.24,1.62c0,.31-.07.62-.12.92s-.12.68-.17,1c-.08.52-.15,1-.23,1.55s-.14.79-.2,1.19-.14.95-.21,1.42c-.05.3-.09.6-.14.9,0,.1,0,.2,0,.3s-.07.46-.11.69c0,.05,0,.1,0,.15a13.74,13.74,0,0,1-.25,1.67.81.81,0,0,0,0,.22.65.65,0,0,1,0,.2c0,.31-.12.61-.17.91s-.09.62-.14.92l-.12.9c-.07.53-.13,1-.2,1.58,0,.06,0,.12-.06.2a.19.19,0,0,1-.07-.22l.15-1.2c0-.16.06-.31.08-.47l.24-1.62c.07-.48.13-1,.2-1.45.05-.31.11-.62.17-.94,0-.16,0-.33.07-.5s.05-.36.08-.54.06-.35.08-.53l.15-1c0-.31.09-.62.12-.93s.14-.82.21-1.23.08-.56.12-.85l.06-.37.27-1.67c.13-.8.28-1.6.37-2.41.05-.39.16-.77.23-1.16s.06-.62.09-.92a.28.28,0,0,1,0-.13c.12-.23.06-.5.14-.74a14.18,14.18,0,0,0,.24-1.59c.08-.45.17-.9.24-1.36s.1-.67.15-1c0-.12.05-.23.07-.35s0-.26,0-.39a.52.52,0,0,1,0-.18,2,2,0,0,0,.12-.69,3,3,0,0,1,.09-.41c0-.19,0-.37.06-.55.06-.34.13-.68.18-1s.1-.66.15-1c.07-.5.16-1,.22-1.5a11.8,11.8,0,0,0,.29-1.68,3.3,3.3,0,0,1,.15-.76.32.32,0,0,1,.2-.22Z" transform="translate(-22.5 -206)"/><path d="M372.57,274.1h.18a.22.22,0,0,1,.21.23c0,.21,0,.21.22.25a8,8,0,0,0,1.76.12l.05,0c-.05.09-.13.09-.21.09a10.6,10.6,0,0,1-1.68-.15.22.22,0,0,1-.2-.2c0-.26,0-.26-.34-.28Z" transform="translate(-22.5 -206)"/><path d="M283.61,259.31c.15-.11-.29-.39.18-.36l-.17-.48.4-.21-.14-.08a3.49,3.49,0,0,0,.05-.52c0-.29-.08-.58-.1-.87a4.44,4.44,0,0,0-.82-1.89,5.35,5.35,0,0,1-.91-3.92.59.59,0,0,1,.1-.29c.09-.12.24-.31.32-.29a.66.66,0,0,1,.35.31c.18.29.31.61.49.89a.9.9,0,0,0,.92.41,2.11,2.11,0,0,0,1.29-.41,1.07,1.07,0,0,0,.4-1c-.22-1.3-.42-2.61-.63-3.91l-2.13-13.46c-.06-.38-.15-.7-.62-.79a.36.36,0,0,1-.32-.45c.07-.36-.24-.39-.47-.34-.49.13-.5-.19-.57-.51s.17-.45.44-.51c.63-.15.71-.27.58-.88-.23.09-.45.19-.68.26s-.32-.06-.35-.28,0-.37.23-.4.52,0,.48-.39-.31-.38-.59-.28c-.23-.47-.18-.66.27-.8a.46.46,0,0,0,.37-.59.85.85,0,0,1,0-.16c0-.94.46-1.29,1.38-1a1,1,0,0,1,.69.8c0,.14,0,.29.05.43,0,.29.1.54.49.3.19-.11.46-.11.51.16,0,.12-.19.29-.32.41s-.19.06-.35.1l.21.78.77-.33.14.44c-.26.16-.59.26-.69.48s.09.48.14.68l.89-.34c.16.69.1.79-.66,1a1.65,1.65,0,0,1-.16,1.22,2.77,2.77,0,0,0-.12,1.49c.17,1.08.44,2.14.68,3.21.27,1.24.57,2.47.83,3.71.43,2,.82,4,1.24,6.05.38,1.84.77,3.67,1.16,5.51,0,.18.09.35.14.56.6-.1,1.19-.19,1.76-.32s.49-.53.63-.87c.05-.12.09-.24.12-.32l.84.23c.87.8.66,1.86.45,2.88a3.9,3.9,0,0,0,1,3.69,8.23,8.23,0,0,1,1.78,2.92,4.38,4.38,0,0,1,.13,2.24c-.06.39.27.82.37,1.25a2.08,2.08,0,0,1,.09,1c0,.18-.41.31-.66.39a32.51,32.51,0,0,1-6.8,1.68,12.57,12.57,0,0,1-2.43-.19h0c-.86-.73-2.06-1-2.66-2.08a5.26,5.26,0,0,1-.6-1.35,5.87,5.87,0,0,1-.12-3,8.49,8.49,0,0,1,.33-1.12C283.27,259.53,283.47,259.43,283.61,259.31Z" transform="translate(-22.5 -206)"/></svg>