<?xml version="1.0" encoding="utf-8"?>
<!-- Generator: Adobe Illustrator 22.0.0, SVG Export Plug-In . SVG Version: 6.00 Build 0)  -->
<svg version="1.1" id="Layer_1" xmlns="http://www.w3.org/2000/svg" xmlns:xlink="http://www.w3.org/1999/xlink" x="0px" y="0px"
	 viewBox="0 0 682.8 222.7" style="enable-background:new 0 0 682.8 222.7;" xml:space="preserve">
<style type="text/css">
	.st0{fill:none;stroke:#FFFFFF;stroke-miterlimit:10;}
	.st1{font-family:'Arvo';}
	.st2{font-size:24px;}
	.st3{font-size:68.12px;}
	.st4{font-size:125.51px;}
</style>
<title>sum-parts</title>
<path d="M38.7,89.4v-6c5.1-7.6,8.6-8.8,18.5-6.2c6.5,1.7,8.3-0.1,7.8-6.9c-0.7-9.1-2.9-18-4.3-26.9c9-2.3,18.2-3.9,27.4-4.7
	c5.8-0.6,7.4,1.7,6.1,7.5c-0.8,2.7-1.2,5.5-1.4,8.3c0.1,5.9,4.9,10.7,10.9,10.6c0.2,0,0.3,0,0.5,0c5.9-0.5,10.4-5.6,10-11.5
	c-0.3-2.5-0.7-4.9-1.4-7.3c-1.4-5.6,0.3-8.1,6-7.6c9.4,0.8,18.8,2.4,27.9,4.9c-2.3,9.2-3.8,18.5-4.8,27.9c-0.5,5.2,1.7,7.1,6.8,5.9
	c2.3-0.5,4.5-1.2,6.8-1.6c6.2-0.9,12,3.5,12.9,9.7c0,0.2,0,0.4,0.1,0.5c0.4,6.1-4.7,11.3-11.2,11.4c-2.8-0.1-5.6-0.6-8.3-1.5
	c-5.2-1.3-7.6,0.7-7,6c0.9,9.2,2.5,18.4,4.7,27.4c-9.5,2.9-19.4,4.6-29.3,5c-4,0.2-5.5-2.1-4.7-6.1c0.5-2.6,1.3-5.1,1.7-7.8
	c0.7-6-3.5-11.4-9.5-12.2c-0.2,0-0.5-0.1-0.7-0.1c-5.9-0.4-10.9,4.1-11.3,10c0,0.2,0,0.4,0,0.7c0,3,0.8,5.9,1.6,8.8
	c1.2,4.8-0.4,6.9-5.4,6.7c-8.7-0.4-17.1-2.2-25.6-3.9c-2.5-0.5-2.8-1.5-2.2-3.8c1.9-7.7,3.2-15.6,3.9-23.5c0.7-7.2-1-8.7-8.1-7
	C46.8,98.7,43.7,97.5,38.7,89.4z"/>
<path d="M146.6,129.4c-2.2-9-3.8-18.2-4.7-27.4c-0.6-5.3,1.8-7.4,7-6c2.7,0.9,5.5,1.4,8.3,1.5c6.5-0.1,11.6-5.3,11.2-11.4
	c-0.6-6.3-6.1-10.9-12.4-10.3c-0.2,0-0.3,0-0.5,0.1c-2.3,0.4-4.5,1.1-6.8,1.6c-5.1,1.2-7.3-0.7-6.8-5.9c0.9-9.4,2.5-18.7,4.8-27.9
	l0.1-0.2c9.3,2.6,18.8,4.2,28.4,4.9c4.8,0.4,6.6-2,5.6-6.7c-0.5-2.4-1.2-4.8-1.5-7.3c-0.5-4.5,1-8.3,4.9-10.7
	c5-3.2,11.7-1.7,14.8,3.4c1.3,2.1,1.9,4.6,1.6,7c-0.4,2.6-1,5.2-1.7,7.8c-0.9,4.4,0.9,6.9,5.5,6.5c9.6-0.9,19.1-2.1,28.4-4.9
	c3,9.4,4.2,19.1,5,28.9c0.4,4.4-1.8,6.1-6.1,5.2c-2.4-0.5-4.8-1.2-7.3-1.6c-4.2-0.9-8.5,0.9-10.9,4.5c-3.4,4.9-2.2,11.6,2.7,15
	c2,1.4,4.5,2.1,7,1.9c2.6-0.3,5.2-0.8,7.8-1.5c5.1-1.2,7.3,0.5,6.9,5.8c-0.8,8.4-2.1,16.8-3.9,25.1c-0.5,2.6-1.6,3-4.2,2.3
	c-7.6-1.9-15.3-3.1-23.1-3.8c-7.4-0.7-8.9,1-7,8.4c2.4,9.4,1,13.2-6.8,17.9h-6c-7.8-5-9-8.5-6.3-18.4c1.8-6.4-0.2-8.5-6.8-8
	C164.5,125.8,155.6,127.9,146.6,129.4z"/>
<path class="st0" d="M146.6,129.4c-2.2-9-3.8-18.2-4.7-27.4c-0.6-5.3,1.8-7.4,7-6c2.7,0.9,5.5,1.4,8.3,1.5
	c6.5-0.1,11.6-5.3,11.2-11.4c-0.6-6.3-6.1-10.9-12.4-10.3c-0.2,0-0.3,0-0.5,0.1c-2.3,0.4-4.5,1.1-6.8,1.6c-5.1,1.2-7.3-0.7-6.8-5.9
	c0.9-9.4,2.5-18.7,4.8-27.9l0.1-0.2"/>
<text transform="matrix(1 0 0 1 114.7215 197.07)" class="st1 st2">whole</text>
<text transform="matrix(1 0 0 1 257.7216 197.07)" class="st1 st2">is bigger than</text>
<path d="M442.2,88.3v-3.8c3.2-4.8,5.4-5.5,11.6-3.9c4,1.1,5.2-0.1,4.9-4.3c-0.4-5.7-1.8-11.2-2.7-16.9c5.6-1.4,11.4-2.4,17.1-2.9
	c3.6-0.4,4.6,1,3.8,4.7c-0.5,1.7-0.8,3.4-0.9,5.2c0.1,3.7,3.1,6.7,6.8,6.6c0.1,0,0.2,0,0.3,0c3.7-0.3,6.5-3.5,6.3-7.2
	c-0.2-1.5-0.5-3.1-0.9-4.6c-0.9-3.5,0.2-5,3.8-4.7c5.9,0.5,11.7,1.5,17.4,3c-1.4,5.7-2.4,11.6-3,17.4c-0.3,3.3,1.1,4.4,4.3,3.7
	c1.4-0.3,2.8-0.8,4.2-1c3.9-0.5,7.5,2.2,8,6.1c0,0.1,0,0.2,0,0.3c0.1,3.8-2.8,7-6.6,7.2c-0.1,0-0.2,0-0.4,0
	c-1.8-0.1-3.5-0.4-5.2-0.9c-3.2-0.8-4.8,0.4-4.4,3.8c0.6,5.8,1.6,11.5,2.9,17.1c-5.9,1.8-12.1,2.9-18.3,3.2c-2.5,0.1-3.5-1.3-3-3.8
	c0.3-1.6,0.8-3.2,1.1-4.9c0.5-3.7-2.2-7.2-6-7.6c-0.2,0-0.3,0-0.5,0c-3.7-0.2-6.8,2.6-7.1,6.3c0,0.1,0,0.3,0,0.4
	c0.1,1.9,0.4,3.7,1,5.5c0.8,3-0.2,4.3-3.4,4.2c-5.4-0.4-10.7-1.2-16-2.5c-1.5-0.3-1.8-1-1.4-2.4c1.2-4.8,2-9.8,2.4-14.7
	c0.4-4.5-0.6-5.5-5-4.4C447.3,94.1,445.4,93.4,442.2,88.3z"/>
<path d="M587.2,113.3c-1.4-5.6-2.4-11.4-2.9-17.1c-0.4-3.3,1.2-4.6,4.4-3.8c1.7,0.5,3.4,0.8,5.2,0.9c3.8,0.1,6.9-3,7-6.8
	c0-0.1,0-0.2,0-0.4c-0.4-3.9-3.8-6.8-7.7-6.4c-0.1,0-0.2,0-0.3,0c-1.4,0.2-2.8,0.7-4.2,1c-3.2,0.7-4.6-0.5-4.3-3.7
	c0.6-5.9,1.6-11.7,3-17.4v-0.1c5.8,1.6,11.7,2.6,17.7,3.1c3,0.3,4.2-1.3,3.5-4.2c-0.3-1.5-0.8-3-1-4.6c-0.6-3.7,1.9-7.1,5.6-7.7
	c3.7-0.6,7.1,1.9,7.7,5.6c0.1,0.6,0.1,1.3,0,1.9c-0.2,1.6-0.6,3.2-1,4.8c-0.6,2.8,0.6,4.3,3.4,4.1c6-0.4,11.9-1.5,17.7-3.1
	c1.7,5.9,2.8,11.9,3.2,18.1c0.3,2.8-1.1,3.8-3.8,3.3c-1.5-0.3-3-0.7-4.6-1c-2.6-0.5-5.3,0.6-6.8,2.8c-2.1,3.1-1.4,7.3,1.7,9.4
	c1.3,0.9,2.8,1.3,4.3,1.2c1.6-0.2,3.3-0.6,4.9-1c3.2-0.8,4.6,0.3,4.3,3.6c-0.5,5.3-1.3,10.5-2.4,15.7c-0.3,1.6-1,1.9-2.6,1.5
	c-4.7-1.2-9.6-2-14.4-2.4c-4.6-0.4-5.6,0.6-4.4,5.2c1.5,5.9,0.6,8.3-4.2,11.2h-3.8c-4.9-3.1-5.6-5.3-4-11.5c1.1-4-0.1-5.3-4.3-5
	C598.4,111.1,592.8,112.4,587.2,113.3z"/>
<text transform="matrix(1 0 0 1 533.1716 111.04)" class="st1 st3">+</text>
<text transform="matrix(1 0 0 1 307.0916 128.92)" class="st1 st4">&gt;</text>
<text transform="matrix(1 0 0 1 458.7216 197.07)" class="st1 st2">sum of its parts</text>
</svg>
