<?xml version="1.0" encoding="utf-8"?>
<!-- Generator: Adobe Illustrator 22.0.0, SVG Export Plug-In . SVG Version: 6.00 Build 0)  -->
<svg version="1.1" id="Layer_1" xmlns="http://www.w3.org/2000/svg" xmlns:xlink="http://www.w3.org/1999/xlink" x="0px" y="0px"
	 viewBox="0 0 623 275.8" style="enable-background:new 0 0 623 275.8;" xml:space="preserve">
<style type="text/css">
	.st0{font-family:'Arvo';}
	.st1{font-size:28px;}
	.st2{fill:none;stroke:#808080;stroke-miterlimit:10;}
	.st3{fill:#808080;}
	.st4{fill:#FFFFFF;}
	.st5{font-size:24px;}
</style>
<title>vision</title>
<path d="M192,177.1v61.2H34v-61.2c0.3-1,0.5-2.1,0.7-3.1c1.2-12.2,5.1-24,11.4-34.6c6.2-10.8,14.8-20,25.2-26.8
	c12.1,10.8,26.1,16.3,42,16.3s29.8-5.8,41.6-16.4c15.8,10.6,27.4,26.4,32.9,44.6C189.7,163.6,190.6,170.4,192,177.1z"/>
<path d="M118.4,29.9c5.3,1.7,10.9,2.9,15.9,5.3c22.9,11.7,31.9,39.8,20.1,62.7c-7,13.6-20.1,22.8-35.2,24.9
	c-24.9,3.4-48.7-14.2-52.1-38.6c-3.6-26.3,13.2-49.6,38.7-53.6c0.6-0.2,1.3-0.4,1.9-0.7L118.4,29.9z"/>
<path d="M589,177.1v61.2H431v-61.2c0.3-1,0.5-2.1,0.7-3.1c1.2-12.2,5.1-24,11.4-34.6c6.2-10.8,14.8-20,25.2-26.8
	c12.1,10.8,26.1,16.3,42,16.3s29.8-5.8,41.6-16.4c15.8,10.6,27.4,26.4,32.8,44.6C586.7,163.6,587.6,170.4,589,177.1z"/>
<path d="M515.4,29.9c5.3,1.7,10.9,2.9,15.9,5.3c22.9,11.7,31.9,39.8,20.1,62.7c-7,13.6-20.1,22.8-35.2,24.9
	c-24.9,3.4-48.7-14.2-52.1-38.6c-3.6-26.3,13.2-49.6,38.7-53.6c0.6-0.2,1.3-0.4,1.9-0.7L515.4,29.9z"/>
<text transform="matrix(1 0 0 1 77.26 268.83)" class="st0 st1">artist</text>
<text transform="matrix(1 0 0 1 447.08 268.83)" class="st0 st1">audience</text>
<polyline class="st2" points="114.9,175.1 114.9,50.1 122.7,50.1 502.7,50.1 510.5,50.1 510.5,175.1 "/>
<circle class="st3" cx="114.7" cy="174.6" r="5.5"/>
<circle class="st3" cx="510.7" cy="175.6" r="5.5"/>
<circle class="st3" cx="114.7" cy="49.6" r="5.5"/>
<circle class="st3" cx="509.7" cy="49.6" r="5.5"/>
<text transform="matrix(1 0 0 1 72.5 193.36)" class="st4 st0 st5">feeling</text>
<text transform="matrix(1 0 0 1 62.08 23.36)" class="st0 st5">meaning</text>
<text transform="matrix(1 0 0 1 271.26 24.36)" class="st0 st1">music</text>
<text transform="matrix(1 0 0 1 468.5 193.36)" class="st4 st0 st5">feeling</text>
<text transform="matrix(1 0 0 1 458.08 27.36)" class="st0 st5">meaning</text>
<path d="M382.4,24c0-3.7,0-7.3,0-10.9c-0.1-0.3-0.3-0.5-0.5-0.7c-3.2-0.8-6.4-1.5-9.7-2.3v13.1c0.1,2.8-2.1,5-4.9,5.1
	c-0.4,0-0.7,0-1.1-0.1c-1.4-0.3-2.2-1.7-1.9-3c0-0.2,0.1-0.4,0.2-0.5c1-2.2,3.3-3.4,6.1-3V2.1l6,1.6c2.2,0.6,4.4,1.2,6.6,1.8
	c0.6,0.1,0.8,0.4,0.8,1c0,6.7,0,13.3,0,20c0,1.3-0.6,2.4-1.8,3c-1,0.5-2.1,0.9-3.2,1.1c-0.9,0.3-1.9-0.1-2.5-0.9
	c-0.6-0.8-0.7-1.9-0.1-2.8c0.9-1.7,2.6-2.9,4.5-2.9C381.3,24,381.8,24,382.4,24z M382.2,11.1c0.5-2.7,0.4-3-2.1-3.6l-0.6-0.2l-7.5-2
	c0,1,0,1.8,0,2.7c0,0.6,0.2,0.9,0.8,1c2.1,0.4,4.1,1,6.2,1.4L382.2,11.1z"/>
<path d="M254.8,23.8v-18h1.5c0,0,0.1,0.1,0.1,0.2c0.1,2.4,1.2,4.7,3,6.3c0.1,0.1,0.3,0.3,0.4,0.4c3,3.4,3.4,6.1,1.4,10.2
	c-0.2,0.3-0.3,0.6-0.4,0.9c-0.3,1-1,1.3-2.1,1c0.3-0.7,0.6-1.3,0.9-2c0.7-1.5,1-3.1,0.8-4.7c-0.2-2.2-1.8-4-4-4.4c0,0.4,0,0.7,0,1
	c0,3.8-0.1,7.6,0,11.4c0.1,2.8-3.5,5.4-6.3,4.6c-1.4-0.3-2.2-1.7-1.9-3c0.1-0.3,0.2-0.5,0.3-0.8c0.9-1.8,2.8-3,4.8-3L254.8,23.8z"/>
<path d="M396.5,21.2V3.8h1.5c0,0.3,0,0.7,0,1c0,6.2,0,12.3,0,18.5c0,3-3.6,5.4-6.4,4.4c-1.3-0.4-1.9-1.8-1.5-3.1
	c0-0.1,0-0.1,0.1-0.2c0.9-2.1,3.1-3.4,5.4-3.3L396.5,21.2z"/>
<path d="M241.9,5.9c0.2,0,0.5-0.1,0.7-0.1c0.3,0,0.5,0,0.9,0.1V7c0,6-0.1,12,0,18.1c0.1,2.2-1.4,4.1-3.5,4.6c-0.5,0.1-1,0.2-1.6,0.3
	c-2.4,0.3-3.3-2.1-2.6-3.7c1-1.9,2.9-3.1,5.1-3.1c0.3,0,0.6,0,1,0.1L241.9,5.9z"/>
</svg>
