<?xml version="1.0" encoding="utf-8"?>
<!-- Generator: Adobe Illustrator 22.0.0, SVG Export Plug-In . SVG Version: 6.00 Build 0)  -->
<svg version="1.1" id="Layer_1" xmlns="http://www.w3.org/2000/svg" xmlns:xlink="http://www.w3.org/1999/xlink" x="0px" y="0px"
	 viewBox="0 0 2179.6 940.8" style="enable-background:new 0 0 2179.6 940.8;" xml:space="preserve">
<style type="text/css">
	.st0{fill:#FFFFFF;}
</style>
<g>
	<g>
		<g>
			<path class="st0" d="M1895.5,530.9c-133-3.6-235.6-106.2-239.2-239.2c-0.6-21.4-34-21.5-33.4,0
				c4.1,151.4,121.2,268.5,272.6,272.6C1917,564.9,1917,531.5,1895.5,530.9L1895.5,530.9z"/>
		</g>
		<g>
			<path class="st0" d="M1895.5,52.5c133,3.6,235.6,106.2,239.2,239.2c0.6,21.4,34,21.5,33.4,0c-4.1-151.4-121.2-268.5-272.6-272.6
				C1874,18.6,1874,51.9,1895.5,52.5L1895.5,52.5z"/>
		</g>
	</g>
</g>
<g>
	<path class="st0" d="M815.6,257.7c-89,89-178,178-267,267c-10.2,10.2-2.7,28.5,11.8,28.5c131.7,0,263.3,0,395,0
		c21.5,0,21.5-33.4,0-33.4c-131.7,0-263.3,0-395,0c3.9,9.5,7.9,19,11.8,28.5c89-89,178-178,267-267
		C854.4,266.1,830.8,242.5,815.6,257.7L815.6,257.7z"/>
</g>
<g>
	<path class="st0" d="M821.8,41.4c79.7,0,159.5,0,239.2,0c-3.9-9.5-7.9-19-11.8-28.5c-33.4,33.4-66.8,66.8-100.1,100.1
		c-15.2,15.2,8.4,38.8,23.6,23.6c33.4-33.4,66.8-66.8,100.1-100.1C1083.1,26.3,1075.5,8,1061,8c-79.7,0-159.5,0-239.2,0
		C800.3,8,800.3,41.4,821.8,41.4L821.8,41.4z"/>
</g>
<g>
	<path class="st0" d="M281.4,503.1C151.3,499.2,51.6,399.6,47.7,269.5c-5.6,5.6-11.1,11.1-16.7,16.7c166.9,0,333.8,0,500.7,0
		c8.8,0,17-7.6,16.7-16.7C544,120.9,429.9,6.9,281.4,2.4c-21.5-0.6-21.5,32.7,0,33.4C411.5,39.7,511.1,139.4,515,269.5
		c5.6-5.6,11.1-11.1,16.7-16.7c-166.9,0-333.8,0-500.7,0c-8.8,0-17,7.6-16.7,16.7c4.5,148.5,118.5,262.6,267,267
		C302.9,537.2,302.9,503.8,281.4,503.1L281.4,503.1z"/>
</g>
<g>
	<path class="st0" d="M1154.9,42.1c74.2,77.9,148.3,155.8,222.5,233.7c0-7.9,0-15.7,0-23.6c-85.3,85.3-170.6,170.6-255.9,255.9
		c-15.2,15.2,8.4,38.8,23.6,23.6c85.3-85.3,170.6-170.6,255.9-255.9c6.5-6.5,6.2-17.1,0-23.6c-74.2-77.9-148.3-155.8-222.5-233.7
		C1163.7,2.9,1140.1,26.5,1154.9,42.1L1154.9,42.1z"/>
</g>
<g>
	<path class="st0" d="M1594.4,24c-35.2,35.2-70.5,70.5-105.7,105.7c-15.2,15.2,8.4,38.8,23.6,23.6c35.2-35.2,70.5-70.5,105.7-105.7
		C1633.2,32.4,1609.6,8.8,1594.4,24L1594.4,24z"/>
</g>
<g>
	<path class="st0" d="M58.1,773c14-20.7,95.9-133.6,123.9-66.4c8,19.3-9.1,52.2-16.6,68.6c-20.7,45.2-48.9,87.2-76.6,128.4
		c6.4,3.7,12.8,7.5,19.2,11.2c46.3-69.1,95.3-142.7,160.7-195.7c22.8-18.5,57.3-43.4,88.1-29.6c32.3,14.4,24.2,59.7,22.3,88.5
		c-3.1,46.8-10.1,93.6-18.8,139.7c-2.6,13.9,17.3,19.8,21.5,5.9c24.1-79.5,82.7-231.4,184.5-225.6c118.7,6.7,41.4,127.9,42.2,192.5
		c0.6,54.8,50.5,46.3,79.2,18.1c56.3-55.3,108.3-115.2,167.8-167.1c11.2-9.8,22.7-20.1,35.4-28.1c13.5-8.4,12.6-11.5,15.4-4.3
		c5,13.3-16.6,55.2-20.5,68.4c-19.5,65.9-33.1,187.7,76.7,146.5c91.1-34.2,145-156.5,175.4-241.8c4.2-11.7-15.2-20.1-20.3-8.6
		c-17.9,40.6-34.2,82.1-47.8,124.4c-8.6,26.8-38.6,99.6-8.8,123.6c33.4,26.9,105.4-42.1,128.5-59.8c71-54.4,135.7-116.2,203.3-174.7
		c-5.8-4.5-11.6-9-17.5-13.5c-23.1,36.3-50.1,113.9,18,110.8c9-0.4,22-6.3,30.7-3c38.8,14.8,10.9,84.8-6.6,102.9
		c-23.1,24-54.5,25.5-85.4,24.6c-14.6-0.4-13.9,20.7,0,22.3c93.4,10.5,185-44,258-96.1c58.7-41.9,122.5-90.7,164.5-150.3
		c-6.4-3.7-12.8-7.5-19.2-11.2c-32.7,53.4-108.2,170.8-61.4,236.5c42.4,59.5,126.1-11.5,162.5-39.3
		c70.2-53.6,137.7-116.6,213.6-162.1c37.4-22.4,62.8-15.6,102.7-3.3c13.8,4.2,19.3-16.8,5.9-21.5c-98.7-34.5-218,24.6-203.1,141.8
		c6,47.5,40.1,102.5,90.4,111.1c40.1,6.8,76.1-15.5,111.3-30.7c13.1-5.6,1.8-24.8-11.2-19.2c-70.1,30.2-145.8,49.4-167.2-55.6
		c-21.3-104.7,87.5-156.2,173.9-126c2-7.2,3.9-14.3,5.9-21.5c-25.4-7.8-51.8-18.1-78.7-12.7c-37.4,7.5-71,38.4-100.2,60.8
		c-28.6,21.8-56.8,44.1-85.2,66.2c-44,34.2-90,80.5-141.8,102.8c-42,18.1-70.7,2.5-68.3-45.3c3-61,39.3-120.3,70.1-170.7
		c7.6-12.4-11.1-22.8-19.2-11.2c-39.5,56-101.6,103-156.5,142.3c-70.1,50.2-157.1,103.2-246.8,93.1c0,7.4,0,14.8,0,22.3
		c67.8,1.8,120.2-26.6,130.9-98.8c3.8-25.7,4.2-58.6-23.6-70.4c-10.3-4.4-21.8-2.5-32.5-1.8c-6.1,0.4-14.3,4.4-19.8,2.6
		c-36.4-12.3-3.4-60.9,7.5-78c7.1-11.2-8.3-21.4-17.5-13.5c-45.5,39.4-89.5,80.5-135.4,119.5c-18.4,15.6-140.3,131.4-168.2,110
		c-18.3-14.1,23.3-113.9,28.8-129.2c10.5-29.3,22-58.4,34.6-86.9c-6.8-2.9-13.6-5.7-20.3-8.6c-12.9,36.3-29.7,71.6-48.6,105.1
		c-24.6,43.6-90.3,150.9-155.3,125.4c-80.7-31.5,63-203.5,3.9-224.3c-31.1-11-83,48.8-100.9,65.7c-27.6,26.1-54.1,53.3-80.5,80.5
		c-14.3,14.6-28.4,29.3-42.8,43.9c-5.9,6-12.6,17-20.2,20.4c-23.5,10.3-36-3.5-36.5-23.8c-1.1-50.5,39.4-101.9,10.7-152.5
		c-23.1-40.8-84.7-49.2-125.2-33.8c-87.7,33.3-135.5,151.9-160.6,235c7.2,2,14.3,3.9,21.5,5.9c11.1-59.3,22.4-121.8,20.8-182.3
		c-0.8-31.7-6.5-58.7-37.3-72.3c-30.8-13.6-63.5,0.2-89.8,17.4C196.9,738,140,827.2,88.8,903.6c-8,11.9,11.3,23.1,19.2,11.2
		c26.4-39.4,138-175.9,85.3-232.2c-57.3-61.3-127.4,39-154.4,79.1C30.9,773.7,50.2,784.8,58.1,773L58.1,773z"/>
</g>
</svg>
