<?xml version="1.0" encoding="utf-8"?>
<!-- Generator: Adobe Illustrator 22.0.1, SVG Export Plug-In . SVG Version: 6.00 Build 0)  -->
<svg version="1.1" id="Layer_1" xmlns="http://www.w3.org/2000/svg" xmlns:xlink="http://www.w3.org/1999/xlink" x="0px" y="0px"
	 viewBox="0 0 2188.9 1690.3" style="enable-background:new 0 0 2188.9 1690.3;" xml:space="preserve">
<style type="text/css">
	.st0{fill:#FFFFFF;}
</style>
<g>
	<g>
		<g>
			<path class="st0" d="M1906.7,536.9c-136.1-3.6-241.3-108.8-245.2-245.2c-0.5-22-34.8-22-34,0c4.1,155.1,124.4,275.1,279.2,279.2
				C1928.7,572,1928.7,537.7,1906.7,536.9L1906.7,536.9z"/>
		</g>
		<g>
			<path class="st0" d="M1906.7,46.9c136.1,3.6,241.3,108.8,245.2,245.2c0.5,22,34.8,22,34,0C2181.8,137,2061.5,17,1906.7,12.9
				C1884.7,12.3,1884.7,46.4,1906.7,46.9L1906.7,46.9z"/>
		</g>
	</g>
</g>
<g>
	<g>
		<path class="st0" d="M573.1,46.7c174.8,0,349.6,0,524.4,0c-4.1-9.7-7.9-19.4-12-29.2C910.7,192.3,735.9,367.1,561.1,541.9
			c-10.5,10.5-2.8,29.2,12,29.2c174.8,0,349.6,0,524.4,0c22,0,22-34,0-34c-174.8,0-349.6,0-524.4,0c4.1,9.7,7.9,19.4,12,29.2
			c174.8-174.8,349.6-349.6,524.4-524.4c10.5-10.5,2.8-29.2-12-29.2c-174.8,0-349.6,0-524.4,0C551.1,12.4,551.1,46.7,573.1,46.7
			L573.1,46.7z"/>
	</g>
</g>
<g>
	<g>
		<line class="st0" x1="1211.4" y1="28" x2="1208.6" y2="565.2"/>
		<g>
			<path class="st0" d="M1194.2,28c-1,182.5-2,354.7-3.1,537.1c-0.3,22,34,22,34,0c1-182.5,2-354.7,3.1-537.1
				C1228.5,6.3,1194.2,6,1194.2,28L1194.2,28z"/>
		</g>
	</g>
	<g>
		<line class="st0" x1="1655.9" y1="29.6" x2="858" y2="986.9"/>
		<g>
			<path class="st0" d="M1643.8,17.5c-232.6,279.2-465.2,558.4-698.1,837.6c-33.3,39.9-66.5,79.8-100.1,120
				c-14.1,16.9,10.2,41.2,24.1,24.1c232.6-279.2,465.2-558.4,698.1-837.6c33.3-39.9,66.5-79.8,100.1-120
				C1682,25,1657.9,0.6,1643.8,17.5L1643.8,17.5z"/>
		</g>
	</g>
</g>
<g>
	<g>
		<path class="st0" d="M288.1,519.9C154.7,515.8,52.6,413.7,48.8,280.6c-5.9,5.9-11.3,11.3-17.1,17.1c170.9,0,342.1,0,512.8,0
			c9.2,0,17.4-7.9,17.1-17.1C557,128.3,440.3,11.4,288.1,6.8c-22-0.8-22,33.5,0,34C421.4,44.9,523.5,147,527.4,280.1
			c5.9-5.9,11.3-11.3,17.1-17.1c-170.9,0-342.1,0-512.8,0c-9.2,0-17.4,7.9-17.1,17.1c4.6,152,121.6,269,273.6,273.6
			C310.1,554.7,310.1,520.4,288.1,519.9L288.1,519.9z"/>
	</g>
</g>
<g>
	<g>
		<path class="st0" d="M196.9,1125.8c88.3,4.1,146.7,69.1,149.2,155.8c1,38.7,0,77.4,0,116.1c0,84.2,0,168.4,0,252.9
			c0,21.2,33.1,21.2,33.1,0c0-103.5,0-206.8,0-310.6c0-42.2,3.8-86.8-10.9-127.2c-26.8-73.6-95.1-116.6-171.2-120.2
			C175.5,1091.6,175.7,1124.8,196.9,1125.8L196.9,1125.8z"/>
	</g>
	<g>
		<path class="st0" d="M47.7,1650.6c0-125.2,0-250.3,0-375.5c0-21.2-33.1-21.2-33.1,0c0,125.2,0,250.3,0,375.5
			C14.6,1671.9,47.7,1671.9,47.7,1650.6L47.7,1650.6z"/>
	</g>
</g>
<g>
	<path class="st0" d="M528.3,1125.8c81.7,3.8,148.4,65,149.2,149.2c0.3,31.8-4.1,64.7-6,96.7c-5.8,90,26.8,175.8,98.1,233.4
		c175.2,141.6,428.4,9.6,435-207.9c0.8-21.2-32.6-21.2-33.1,0c-3.8,127.5-103.7,234.2-234.2,234.2c-123.6,0-231.5-101.9-233.9-226.6
		c-1-54.2,14.4-110,4.3-163.9c-16.4-87.5-92.6-144.2-179.1-147.9C507.1,1091.6,507.1,1124.8,528.3,1125.8L528.3,1125.8z"/>
</g>
<g>
	<path class="st0" d="M1994.1,1116.4c-205.9,6-341.7,236.2-223.4,414.5c92.8,139.3,252.1,120.2,397.8,120.2c21.2,0,21.2-33.1,0-33.1
		c-107.5,0-235.7,19.8-324.5-54.2c-167.9-140.1-61.5-408,150-414.3C2015.4,1148.9,2015.4,1115.8,1994.1,1116.4L1994.1,1116.4z"/>
</g>
<g>
	<path class="st0" d="M1202,1656c123.9,0,377.8,45.8,386.2-141.9c4.8-104.5-82.7-156.3-175.5-156.3c-42.5,0-97.1,8.1-136.6-10.6
		c-106.7-50.8-64.5-203.9,47.5-210.2c21.2-1.3,21.2-34.4,0-33.1c-108.8,6.3-182.6,122.2-121.7,220.1c52.1,83.4,146.7,64.2,229.7,67
		c79.5,2.8,146,70.6,117.6,153.5c-20.3,59.7-74.1,77.9-130.5,78.4c-72.3,0.8-144.7,0-216.7,0C1180.8,1622.7,1180.8,1656,1202,1656
		L1202,1656z"/>
</g>
<g>
	<path class="st0" d="M1649.4,1120.3c0,173,0,346.2,0,519.2c0,21.2,33.1,21.2,33.1,0c0-173,0-346.2,0-519.2
		C1682.5,1099.1,1649.4,1099.1,1649.4,1120.3L1649.4,1120.3z"/>
</g>
</svg>
