<?xml version="1.0" encoding="utf-8"?>
<!-- Generator: Adobe Illustrator 22.0.1, SVG Export Plug-In . SVG Version: 6.00 Build 0)  -->
<svg version="1.1" id="Layer_1" xmlns="http://www.w3.org/2000/svg" xmlns:xlink="http://www.w3.org/1999/xlink" x="0px" y="0px"
	 viewBox="0 0 2179.6 940.8" style="enable-background:new 0 0 2179.6 940.8;" xml:space="preserve">
<style type="text/css">
	.st0{fill:#FFFFFF;}
</style>
<g>
	<g>
		<g>
			<path class="st0" d="M1888.1,532.6c-132.5-3.6-234.8-105.8-238.3-238.3c-0.6-21.4-33.8-21.4-33.3,0
				c4.1,150.8,120.8,267.5,271.6,271.6C1909.5,566.5,1909.5,533.2,1888.1,532.6L1888.1,532.6z"/>
		</g>
		<g>
			<path class="st0" d="M1888.1,56c132.5,3.6,234.8,105.8,238.3,238.3c0.6,21.4,33.8,21.4,33.3,0
				c-4.1-150.8-120.8-267.5-271.6-271.6C1866.7,22.1,1866.7,55.4,1888.1,56L1888.1,56z"/>
		</g>
	</g>
</g>
<g>
	<path class="st0" d="M812.1,260.4c-88.7,88.7-177.4,177.4-266.1,266.1c-10.2,10.2-2.7,28.4,11.8,28.4c131.2,0,262.4,0,393.5,0
		c21.4,0,21.4-33.3,0-33.3c-131.2,0-262.4,0-393.5,0c3.9,9.5,7.8,18.9,11.8,28.4c88.7-88.7,177.4-177.4,266.1-266.1
		C850.8,268.7,827.3,245.2,812.1,260.4L812.1,260.4z"/>
</g>
<g>
	<path class="st0" d="M818.3,44.9c79.4,0,158.9,0,238.3,0c-3.9-9.5-7.8-18.9-11.8-28.4c-33.3,33.3-66.5,66.5-99.8,99.8
		c-15.2,15.2,8.4,38.7,23.5,23.5c33.3-33.3,66.5-66.5,99.8-99.8c10.2-10.2,2.7-28.4-11.8-28.4c-79.4,0-158.9,0-238.3,0
		C796.9,11.6,796.9,44.9,818.3,44.9L818.3,44.9z"/>
</g>
<g>
	<path class="st0" d="M280.7,504.9C151.1,501,51.8,401.8,47.9,272.1c-5.5,5.5-11.1,11.1-16.6,16.6c166.3,0,332.6,0,498.8,0
		c8.8,0,16.9-7.6,16.6-16.6c-4.4-148-118.1-261.6-266.1-266.1c-21.4-0.6-21.4,32.6,0,33.3c129.6,3.9,228.9,103.2,232.8,232.8
		c5.5-5.5,11.1-11.1,16.6-16.6c-166.3,0-332.6,0-498.8,0c-8.8,0-16.9,7.6-16.6,16.6c4.4,148,118.1,261.6,266.1,266.1
		C302.1,538.8,302.1,505.6,280.7,504.9L280.7,504.9z"/>
</g>
<g>
	<path class="st0" d="M1150.2,45.6c73.9,77.6,147.8,155.2,221.7,232.8c0-7.8,0-15.7,0-23.5c-85,85-170,170-255,255
		c-15.2,15.2,8.4,38.7,23.5,23.5c85-85,170-170,255-255c6.5-6.5,6.2-17,0-23.5c-73.9-77.6-147.8-155.2-221.7-232.8
		C1159,6.5,1135.5,30,1150.2,45.6L1150.2,45.6z"/>
</g>
<g>
	<path class="st0" d="M1588.1,27.6c-35.1,35.1-70.2,70.2-105.3,105.3c-15.2,15.2,8.4,38.7,23.5,23.5
		c35.1-35.1,70.2-70.2,105.3-105.3C1626.8,35.9,1603.3,12.4,1588.1,27.6L1588.1,27.6z"/>
</g>
<g>
	<path class="st0" d="M57.5,773.8c13.9-20.7,95.6-133.1,123.4-66.2c8,19.2-9.1,52-16.6,68.4c-20.7,45.1-48.8,86.9-76.3,128
		c6.4,3.7,12.8,7.5,19.1,11.2c46.1-68.9,95-142.2,160.1-195c22.7-18.4,57.1-43.2,87.8-29.5c32.2,14.4,24.1,59.5,22.2,88.2
		c-3.1,46.7-10.1,93.2-18.7,139.2c-2.6,13.9,17.2,19.7,21.4,5.9c23.8-78.7,80.2-225.2,178.9-225c122.9,0.3,47.6,125.8,47.1,190.5
		c-0.3,38.9,33.1,54.9,64.5,33.7c30.4-20.6,56.8-57.6,82.4-83.8c27.8-28.4,55.5-57,84.8-83.9c7.4-6.8,55.2-55.9,65.8-49.9
		c2.9,1.7-14.9,49.1-16.6,54.2c-19.6,60.5-48,187.3,62.2,156.9c94.4-26.1,152.7-149.2,184.1-233.2c4.4-11.7-15-20-20.3-8.5
		c-17.1,37.1-32.7,75.1-45.9,113.7c-9.2,26.8-38.3,93-13.8,119.6c29.1,31.4,95.2-30.3,116-46.3c69.3-53.2,129.9-116.2,195.7-173.5
		c-5.2-5.2-10.5-10.5-15.7-15.7c-17.1,20.8-61.9,66.6-43.5,98.6c10.7,18.5,35.7,17,53.7,13.7c40.9-7.4,108.6-35,110.1,34.3
		c1.9,87.2-82.5,80.5-142.9,79.2c-14.6-0.3-13.8,20.6,0,22.2c89.8,10.1,176-39.2,246-90.2c55.3-40.4,113.1-87.6,152.8-144.2
		c-6.4-3.7-12.8-7.5-19.1-11.2c-32.5,53.1-89.3,143.4-54.9,208.7c13.6,25.9,45.6,43.8,75.1,36.6c48.5-12,99.7-65.6,138.7-94.3
		c53.5-39.4,111.4-95.2,174.2-119.4c-2.8-6.8-5.7-13.5-8.5-20.3c-60,34.5-161.2,113-110.9,194.3c44.6,72.1,168.6,16.6,226.3-6.1
		c13.1-5.2,7.4-26.6-5.9-21.4c-46.2,18.2-152.8,66.8-194.6,24.9c-63.7-63.9,52.3-147.1,96.3-172.5c10.5-6.1,3.5-24.9-8.5-20.3
		c-40.5,15.6-76.6,46.6-111.4,71.7c-51,36.9-101.1,75.2-152.7,111.3c-24.1,16.9-50.1,42.6-80.4,24.4
		c-68.1-40.9,10.8-164.5,36.4-206.4c7.5-12.4-11.1-22.7-19.1-11.2c-37.3,53.1-93.1,98.3-144.8,136.2c-67,49.1-148.8,96.8-234.8,87.2
		c0,7.4,0,14.8,0,22.2c42.4,0.9,90.5,9.9,127-17.5c33.3-25,52-87.1,29.1-124.3c-19.1-31.1-59.3-30.7-91.3-25
		c-14,2.5-30.8,11.5-45.1,10.9c-49-2.2,4.4-59,18.6-76.3c9-11-4.8-25.2-15.7-15.7c-46.1,40.2-89.4,83.6-135.5,123.8
		c-18.2,15.9-131.7,119.6-145.9,85.4c-11-26.4,21.4-90.4,30.6-115c10.3-27.3,21.5-54.3,33.7-80.8c-6.8-2.8-13.5-5.7-20.3-8.5
		c-14.2,37.8-32.8,74.7-54.1,109c-19,30.6-129.9,172.1-168.1,93.2c-17.5-36.2,67.9-189.8,17.9-196.5c-36.6-4.8-89.4,59.8-111,80.8
		c-27.5,26.8-54.2,54.5-81,82c-12.3,12.6-26.4,33.5-41.6,42.4c-30.2,17.7-45.4-1.6-38.3-31.2c10.5-43.9,33.4-106.2,2.6-147.3
		c-26.7-35.7-85.7-40.5-124.1-24.2C429.7,721.5,383.4,836.1,358.5,918c7.1,2,14.3,3.9,21.4,5.9c11.1-59.1,22.3-121.4,20.7-181.7
		c-0.8-31.6-6.5-58.4-37.2-72c-30.7-13.6-63.3,0.2-89.5,17.4c-78.3,51.3-135,140.3-186,216.3c-8,11.9,11.2,23,19.1,11.2
		c26.3-39.3,137.5-175.2,85-231.4c-57.1-61.1-127,38.9-153.8,78.8C30.3,774.5,49.5,785.6,57.5,773.8L57.5,773.8z"/>
</g>
</svg>
