<?xml version="1.0" encoding="utf-8"?>
<!-- Generator: Adobe Illustrator 22.0.1, SVG Export Plug-In . SVG Version: 6.00 Build 0)  -->
<svg version="1.1" id="Layer_1" xmlns="http://www.w3.org/2000/svg" xmlns:xlink="http://www.w3.org/1999/xlink" x="0px" y="0px"
	 viewBox="0 0 736 739" style="enable-background:new 0 0 736 739;" xml:space="preserve">
<style type="text/css">
	.st0{fill:#FFFFFF;}
</style>
<g>
	<g>
		<path class="st0" d="M371,691.8C191,687,52,548,47.2,368c-0.8-29-46-29.1-45.2,0c5.5,204.9,164.1,363.5,369,369
			C400.1,737.8,400.1,692.6,371,691.8L371,691.8z"/>
	</g>
	<g>
		<path class="st0" d="M371,44.2C551,49,690,188,694.8,368c0.8,29,46,29.1,45.2,0C734.5,163.1,575.9,4.5,371-1
			C341.9-1.8,341.9,43.4,371,44.2L371,44.2z"/>
	</g>
	<g>
		<g>
			<path class="st0" d="M367.2,488.5c-65.9-3.5-113.2-51-116.7-116.7c-7.5,7.5-15.1,15.1-22.6,22.6c92.9,0,185.8,0,278.6,0
				c11.7,0,23.2-10.4,22.6-22.6c-4.9-91.5-70.3-157-161.9-161.9c-29.1-1.6-29,43.6,0,45.2c65.9,3.5,113.2,51,116.7,116.7
				c7.5-7.5,15.1-15.1,22.6-22.6c-92.9,0-185.8,0-278.6,0c-11.7,0-23.3,10.4-22.6,22.6c4.9,91.5,70.3,157,161.9,161.9
				C396.3,535.2,396.2,490,367.2,488.5L367.2,488.5z"/>
		</g>
	</g>
</g>
</svg>
