<?xml version="1.0" encoding="utf-8"?>
<!-- Generator: Adobe Illustrator 22.0.1, SVG Export Plug-In . SVG Version: 6.00 Build 0)  -->
<svg version="1.1" id="Layer_1" xmlns="http://www.w3.org/2000/svg" xmlns:xlink="http://www.w3.org/1999/xlink" x="0px" y="0px"
	 viewBox="0 0 332 181" style="enable-background:new 0 0 332 181;" xml:space="preserve">
<style type="text/css">
	.st0{opacity:0.15;fill:#FFFFFF;}
</style>
<title>perspective_grid</title>
<path class="st0" d="M1355.2,181h-2378.5l-0.1-1L2.4,0h327.2l1025.8,180L1355.2,181z M-1017.5,180h2367L329.5,1H2.4L-1017.5,180z"/>
<polygon class="st0" points="324.4,1 324.6,0 1318.7,180 1318.5,181 "/>
<polygon class="st0" points="319.4,1 319.6,0 1282.1,180 1281.9,181 "/>
<polygon class="st0" points="314.3,1 314.5,0 1245.5,180 1245.3,181 "/>
<polygon class="st0" points="309.4,1 309.6,0 1209,180 1208.8,181 "/>
<polygon class="st0" points="304.4,1 304.6,0 1172.4,180 1172.2,181 "/>
<polygon class="st0" points="299.3,1 299.5,0 1135.8,180.1 1135.6,181 "/>
<polygon class="st0" points="294.3,1 294.5,0 1099.2,180 1099,181 "/>
<polygon class="st0" points="289.3,1 289.5,0 1062.7,180.1 1062.4,181 "/>
<polygon class="st0" points="284.1,1 284.4,0 1026,180 1025.8,181 "/>
<polygon class="st0" points="279.1,1 279.3,0 989.4,180 989.2,180.9 "/>
<polygon class="st0" points="274.1,1 274.4,0 952.9,180 952.6,181 "/>
<polygon class="st0" points="269.1,1 269.3,0 916.3,180 916,181 "/>
<polygon class="st0" points="263.5,1 263.8,0.1 879.4,179.6 879.1,180.6 "/>
<polygon class="st0" points="258.9,1 259.2,0 843.1,180 842.8,180.9 "/>
<polygon class="st0" points="253.9,1 254.2,0 806.5,180 806.2,181 "/>
<polygon class="st0" points="249.6,0.9 250,0 773.4,181.8 773,182.7 "/>
<polygon class="st0" points="243.8,1 244.2,0 733.3,180 733,180.9 "/>
<polygon class="st0" points="238.8,1 239.1,0 696.7,180 696.4,180.9 "/>
<polygon class="st0" points="233.7,1 234.1,0 660.2,180 659.8,180.9 "/>
<polygon class="st0" points="228.7,1 229.1,0.1 623.6,180.1 623.2,181 "/>
<polygon class="st0" points="223.6,0.9 224.1,0.1 587,180.1 586.6,180.9 "/>
<polygon class="st0" points="218.6,0.9 219.1,0.1 550.4,180.1 550,180.9 "/>
<polygon class="st0" points="211.6,0.4 212.1,-0.5 512.9,177.9 512.4,178.7 "/>
<polygon class="st0" points="208.5,0.9 209,0.1 477.3,180.1 476.7,180.9 "/>
<polygon class="st0" points="203.4,0.9 204,0.1 440.7,180.1 440.1,180.9 "/>
<polygon class="st0" points="198.4,0.9 199.1,0.1 404.2,180.2 403.5,180.9 "/>
<polygon class="st0" points="193.3,0.8 194,0.1 367.6,180.1 366.9,180.8 "/>
<polygon class="st0" points="188.3,0.8 189,0.2 331.1,180.2 330.3,180.8 "/>
<polygon class="st0" points="183.2,0.8 184,0.2 294.5,180.2 293.7,180.7 "/>
<polygon class="st0" points="178.1,0.7 179,0.3 257.9,180.3 257,180.7 "/>
<polygon class="st0" points="173.6,1.4 174.6,1.2 221.1,181.7 220.2,182 "/>
<polygon class="st0" points="168,0.5 169,0.5 184.8,180.5 183.8,180.5 "/>
<polygon class="st0" points="147.1,180.4 163,0.5 164,0.5 148.1,180.5 "/>
<polygon class="st0" points="110.7,180.4 157.9,0.4 158.9,0.6 111.6,180.6 "/>
<polygon class="st0" points="74,180.3 153,0.3 153.9,0.7 74.9,180.7 "/>
<polygon class="st0" points="37.5,180.2 148,0.3 148.8,0.8 38.3,180.8 "/>
<polygon class="st0" points="1,180.2 142.9,0.2 143.7,0.8 1.7,180.8 "/>
<polygon class="st0" points="-35.6,180.2 137.9,0.1 138.6,0.8 -34.9,180.9 "/>
<polygon class="st0" points="-72.2,180.1 133,0.2 133.6,0.9 -71.6,180.8 "/>
<polygon class="st0" points="-108.8,180.1 128,0.1 128.6,0.9 -108.2,180.9 "/>
<polygon class="st0" points="-145.3,180.1 122.9,0 123.4,0.9 -144.7,181 "/>
<polygon class="st0" points="-181.9,180 117.9,0.1 118.4,1 -181.4,180.9 "/>
<polygon class="st0" points="-218.4,180.1 112.9,0 113.4,0.9 -218,181 "/>
<polygon class="st0" points="-255.1,180 107.9,0.1 108.4,1 -254.6,180.9 "/>
<polygon class="st0" points="-291.7,180 102.9,0.1 103.3,1 -291.2,180.9 "/>
<polygon class="st0" points="-328.2,180 97.9,0.1 98.3,1 -327.8,180.9 "/>
<polygon class="st0" points="-364.7,180.1 92.8,-0.1 93.1,0.9 -364.4,181.1 "/>
<polygon class="st0" points="-401.4,180 87.8,0 88.1,1 -401,181 "/>
<polygon class="st0" points="-438,180 82.8,0.1 83.1,1 -437.6,180.9 "/>
<polygon class="st0" points="-474.6,179.9 77.8,0.1 78.1,1.1 -474.2,180.9 "/>
<polygon class="st0" points="-511.1,180.1 72.7,-0.1 73,0.8 -510.8,181.1 "/>
<polygon class="st0" points="-547.7,180.1 67.7,-0.1 68,0.9 -547.4,181.1 "/>
<polygon class="st0" points="-584.3,180.1 62.7,0 62.9,0.9 -584,181.1 "/>
<polygon class="st0" points="-620.8,180.2 57.6,-0.1 57.9,0.9 -620.6,181.1 "/>
<polygon class="st0" points="-657.4,180.2 52.6,-0.2 52.8,0.8 -657.2,181.1 "/>
<polygon class="st0" points="-694,180.1 47.6,-0.1 47.8,0.9 -693.8,181.1 "/>
<polygon class="st0" points="-730.7,179.9 42.6,0.1 42.8,1.1 -730.4,180.9 "/>
<polygon class="st0" points="-767.2,180 37.5,0.1 37.8,1.1 -767,180.9 "/>
<polygon class="st0" points="-803.8,180 32.5,0.1 32.7,1.1 -803.6,181 "/>
<polygon class="st0" points="-840.4,180.1 27.5,-0.1 27.7,0.9 -840.2,181.1 "/>
<polygon class="st0" points="-876.2,183.3 22.7,-0.2 22.9,0.8 -876,184.3 "/>
<polygon class="st0" points="-913.6,179.9 17.5,0.2 17.6,1.2 -913.4,180.8 "/>
<polygon class="st0" points="-950.2,180 12.4,0.1 12.6,1 -950,181 "/>
<polygon class="st0" points="-986.8,179.7 7.4,0.3 7.6,1.2 -986.6,180.7 "/>
<path class="st0" d="M1385.7,181h-2439.5l-0.1-1L6.2,0h319.5l1060.1,180L1385.7,181z M-1047.8,180h2427.6L325.7,1H6.3L-1047.8,180z"
	/>
<rect x="-760.9" y="130.3" class="st0" width="1853.8" height="1"/>
<rect x="-581.4" y="99.8" class="st0" width="1494.8" height="1"/>
<rect x="-460.2" y="79.2" class="st0" width="1252.4" height="1"/>
<rect x="-372.8" y="64.4" class="st0" width="1077.6" height="1"/>
<rect x="-306.8" y="53.2" class="st0" width="945.6" height="1"/>
<rect x="-255.2" y="44.4" class="st0" width="842.4" height="1"/>
<rect x="-213.8" y="37.4" class="st0" width="759.5" height="1"/>
<rect x="-179.8" y="31.6" class="st0" width="691.5" height="1"/>
<rect x="-151.3" y="26.8" class="st0" width="634.7" height="1"/>
<rect x="-127.2" y="22.7" class="st0" width="586.5" height="1"/>
<rect x="-106.5" y="19.1" class="st0" width="545.1" height="1"/>
<rect x="-88.6" y="16.1" class="st0" width="509.1" height="1"/>
<rect x="-72.8" y="13.4" class="st0" width="477.6" height="1"/>
<rect x="-58.9" y="11.1" class="st0" width="449.8" height="1"/>
<rect x="-46.5" y="9" class="st0" width="425" height="1"/>
<rect x="-35.4" y="7.1" class="st0" width="402.9" height="1"/>
<rect x="-25.4" y="5.4" class="st0" width="382.9" height="1"/>
<rect x="-16.4" y="3.8" class="st0" width="364.8" height="1"/>
<rect x="-8.2" y="2.5" class="st0" width="348.3" height="1"/>
<rect x="-0.7" y="1.2" class="st0" width="333.3" height="1"/>
</svg>
