<?xml version="1.0" encoding="utf-8"?>
<!-- Generator: Adobe Illustrator 22.0.0, SVG Export Plug-In . SVG Version: 6.00 Build 0)  -->
<svg version="1.1" id="Layer_1" xmlns="http://www.w3.org/2000/svg" xmlns:xlink="http://www.w3.org/1999/xlink" x="0px" y="0px"
	 viewBox="0 0 141.7 34.7" style="enable-background:new 0 0 141.7 34.7;" xml:space="preserve">
<style type="text/css">
	.st0{fill:#8F0000;}
	.st1{fill:url(#SVGID_1_);}
	.st2{fill:url(#SVGID_2_);}
</style>
<g>
	<g>
		<g>
			<path class="st0" d="M141.7,17.4c0,9.5-7.7,17.3-17.3,17.3H17.3C7.7,34.6,0,26.9,0,17.4l0,0C0,7.8,7.7,0.1,17.3,0.1h107.1
				C133.9,0.1,141.7,7.8,141.7,17.4L141.7,17.4z"/>
		</g>
	</g>
	<g>
		<g>
			
				<linearGradient id="SVGID_1_" gradientUnits="userSpaceOnUse" x1="70.85" y1="34.4859" x2="70.85" y2="3.3788" gradientTransform="matrix(1 0 0 -1 0 36)">
				<stop  offset="0" style="stop-color:#A60000"/>
				<stop  offset="0.2801" style="stop-color:#A90000"/>
				<stop  offset="0.477" style="stop-color:#B20000"/>
				<stop  offset="0.6483" style="stop-color:#C20000"/>
				<stop  offset="0.805" style="stop-color:#D70000"/>
				<stop  offset="0.9505" style="stop-color:#F40000"/>
				<stop  offset="1" style="stop-color:#FF0000"/>
			</linearGradient>
			<path class="st1" d="M139.5,17.4c0,8.5-7.5,15.4-16.7,15.4H18.9c-9.2,0-16.7-6.9-16.7-15.4l0,0C2.2,8.9,9.7,2,18.9,2h103.8
				C132,1.9,139.5,8.8,139.5,17.4L139.5,17.4z"/>
		</g>
	</g>
	
		<linearGradient id="SVGID_2_" gradientUnits="userSpaceOnUse" x1="70.85" y1="33.2129" x2="70.85" y2="19.2746" gradientTransform="matrix(1 0 0 -1 0 36)">
		<stop  offset="0" style="stop-color:#FF9696"/>
		<stop  offset="1" style="stop-color:#CA1B1B"/>
	</linearGradient>
	<path class="st2" d="M121.5,3.2H20.2C10,3.2,4,10.4,3.9,17.1h133.9C137.7,10.6,131.8,3.2,121.5,3.2z"/>
</g>
</svg>
